<svg width="45" height="40" viewBox="0 0 45 40" fill="none" xmlns="http://www.w3.org/2000/svg">
<path d="M16.5 1L0 37.5C0 38.5 1 39.5 1 39.5H14.5C14.5 39.5 15.3148 38.6792 15.5 38C15.6541 37.4349 15 36.5 15 36.5C15 36.5 12.6687 34.6235 12 32.5C11.1705 29.8661 11 27 12 24.5C12.9864 22.0341 15.8 20 16.5 19.5C17.2 19 19.5 17.5 22 17.5C24.5 17.5 26.8388 18.4563 29 20C31.1612 21.5437 32.6105 23.821 33 25C33.8953 27.71 33.8931 29.4163 33 32C32.31 33.9962 31.1119 35.5822 30.5 36.5C30.3464 36.7304 29.4773 37.2963 29.5 38C29.5267 38.828 30.5 39.5 30.5 39.5H43C43 39.5 44.1485 39.5077 44.5 39C44.8334 38.5184 44.5 37.5 44.5 37.5L28.5 1L28 0.5C27.5 0 27 0 27 0H18C17 0 17 0 16.5 1Z" fill="white"/>
<path d="M19.5 26.5C18.0065 27.9935 15 29.5 15 29.5C15 29.5 18.0065 31.0065 19.5 32.5C20.9935 33.9935 22.5 37 22.5 37C22.5 37 24.0065 33.9935 25.5 32.5C26.9935 31.0065 30 29.5 30 29.5C30 29.5 26.9935 27.9935 25.5 26.5C24.0065 25.0065 22.5 22 22.5 22C22.5 22 20.9935 25.0065 19.5 26.5Z" fill="#CAE73A"/>
</svg>
